<svg width="54" height="54" viewBox="0 0 54 54" fill="none" xmlns="http://www.w3.org/2000/svg">
<path d="M52 15.8889V38.1111C52 41.7947 50.5367 45.3274 47.932 47.932C45.3274 50.5367 41.7947 52 38.1111 52H15.8889C12.2053 52 8.67263 50.5367 6.06796 47.932C3.46329 45.3274 2 41.7947 2 38.1111V15.8889C2 12.2053 3.46329 8.67263 6.06796 6.06796C8.67263 3.46329 12.2053 2 15.8889 2H38.1111C41.7947 2 45.3274 3.46329 47.932 6.06796C50.5367 8.67263 52 12.2053 52 15.8889Z" stroke="url(#paint0_linear_237_44)" stroke-width="3" stroke-linecap="round" stroke-linejoin="round"/>
<path d="M12.3091 40.65C12.4158 40.6778 12.5292 40.6624 12.6247 40.6072C12.7201 40.552 12.79 40.4614 12.8191 40.355C13.6774 37.1525 17.1658 36.3225 19.2508 35.8258C19.7733 35.7017 20.1858 35.6033 20.4541 35.4875C22.8291 34.4567 23.6033 32.7983 23.8349 31.5883C23.8487 31.5163 23.8432 31.442 23.8191 31.3728C23.795 31.3036 23.753 31.242 23.6974 31.1942C22.4608 30.1267 21.4174 28.5242 20.7591 26.6808C20.7405 26.628 20.7113 26.5795 20.6733 26.5383C19.8024 25.5917 19.3024 24.5908 19.3024 23.7933C19.3024 23.3275 19.4783 23.015 19.8741 22.7792C19.9334 22.7437 19.9829 22.6941 20.0183 22.6347C20.0536 22.5754 20.0737 22.5082 20.0766 22.4392C20.2608 18.1942 23.2841 14.8525 26.9924 14.8308L27.0816 14.8367C30.8083 14.8883 33.8124 18.3017 33.9199 22.6067C33.9214 22.6655 33.9354 22.7234 33.961 22.7764C33.9866 22.8294 34.0231 22.8764 34.0683 22.9142C34.3291 23.135 34.4508 23.415 34.4508 23.795C34.4508 24.4625 34.0949 25.2833 33.4499 26.105C33.4192 26.1445 33.3955 26.1891 33.3799 26.2367C32.7133 28.35 31.5166 30.2158 30.0983 31.3575C30.0395 31.405 29.9947 31.4674 29.9686 31.5383C29.9425 31.6092 29.936 31.6858 29.9499 31.76C30.1816 32.9692 30.9558 34.6267 33.3308 35.6592C33.6116 35.7808 34.0474 35.8758 34.5999 35.995C36.6641 36.4417 40.1183 37.1908 40.9658 40.355C40.98 40.4079 41.0045 40.4574 41.0379 40.5008C41.0712 40.5442 41.1128 40.5806 41.1603 40.6079C41.2077 40.6352 41.26 40.6529 41.3143 40.66C41.3686 40.6671 41.4237 40.6634 41.4766 40.6492C41.5295 40.6349 41.579 40.6104 41.6224 40.5771C41.6658 40.5437 41.7022 40.5021 41.7295 40.4547C41.7568 40.4072 41.7745 40.3549 41.7816 40.3006C41.7887 40.2463 41.785 40.1912 41.7708 40.1383C40.7916 36.4825 36.8783 35.635 34.7766 35.18C34.2891 35.0742 33.8683 34.9833 33.6633 34.8933C32.1133 34.22 31.1583 33.1942 30.8208 31.8392C32.2599 30.6033 33.4641 28.6967 34.1524 26.5583C34.8833 25.6083 35.2849 24.63 35.2849 23.7942C35.2849 23.2367 35.1049 22.7717 34.7483 22.4083C34.5499 17.7383 31.2174 14.0608 27.0816 14.0017L26.9574 14C22.8966 14.0217 19.5499 17.6025 19.2574 22.1917C18.7358 22.575 18.4708 23.1125 18.4708 23.795C18.4708 24.7808 19.0283 25.96 20.0041 27.0417C20.6783 28.8942 21.7233 30.5217 22.9674 31.6608C22.6316 33.0208 21.6758 34.05 20.1224 34.7242C19.9216 34.8117 19.5216 34.9075 19.0583 35.0175C16.9408 35.5208 13.0008 36.4583 12.0141 40.14C11.9856 40.2468 12.0007 40.3604 12.056 40.4561C12.1113 40.5517 12.2024 40.6215 12.3091 40.65V40.65Z" fill="url(#paint1_linear_237_44)" stroke="url(#paint2_linear_237_44)" stroke-width="2.5"/>
<defs>
<linearGradient id="paint0_linear_237_44" x1="6.19016" y1="11.3876" x2="57.8904" y2="24.8851" gradientUnits="userSpaceOnUse">
<stop stop-color="#5D05B5"/>
<stop offset="0.58946" stop-color="#9E1E7C"/>
<stop offset="1" stop-color="#DC3545"/>
</linearGradient>
<linearGradient id="paint1_linear_237_44" x1="14.4961" y1="19.0061" x2="44.8145" y2="27.8481" gradientUnits="userSpaceOnUse">
<stop stop-color="#5D05B5"/>
<stop offset="0.58946" stop-color="#9E1E7C"/>
<stop offset="1" stop-color="#DC3545"/>
</linearGradient>
<linearGradient id="paint2_linear_237_44" x1="14.4961" y1="19.0061" x2="44.8145" y2="27.8481" gradientUnits="userSpaceOnUse">
<stop stop-color="#5D05B5"/>
<stop offset="0.58946" stop-color="#9E1E7C"/>
<stop offset="1" stop-color="#DC3545"/>
</linearGradient>
</defs>
</svg>
