<svg width="54" height="54" viewBox="0 0 54 54" fill="none" xmlns="http://www.w3.org/2000/svg">
<circle cx="27" cy="27" r="25" fill="url(#paint0_linear_415_20)" stroke="url(#paint1_linear_415_20)" stroke-width="3"/>
<path d="M22.6675 16.6234C22.6675 16.3782 22.7787 16.143 22.9767 15.9696C23.1747 15.7962 23.4432 15.6987 23.7231 15.6987H42.7244C43.0043 15.6987 43.2728 15.7962 43.4708 15.9696C43.6688 16.143 43.78 16.3782 43.78 16.6234C43.78 16.8687 43.6688 17.1039 43.4708 17.2773C43.2728 17.4507 43.0043 17.5481 42.7244 17.5481H23.7231C23.4432 17.5481 23.1747 17.4507 22.9767 17.2773C22.7787 17.1039 22.6675 16.8687 22.6675 16.6234ZM22.6675 27.7197C22.6675 27.4744 22.7787 27.2392 22.9767 27.0658C23.1747 26.8924 23.4432 26.795 23.7231 26.795H42.7244C43.0043 26.795 43.2728 26.8924 43.4708 27.0658C43.6688 27.2392 43.78 27.4744 43.78 27.7197C43.78 27.9649 43.6688 28.2001 43.4708 28.3735C43.2728 28.547 43.0043 28.6444 42.7244 28.6444H23.7231C23.4432 28.6444 23.1747 28.547 22.9767 28.3735C22.7787 28.2001 22.6675 27.9649 22.6675 27.7197ZM22.6675 38.8159C22.6675 38.5707 22.7787 38.3355 22.9767 38.1621C23.1747 37.9887 23.4432 37.8913 23.7231 37.8913H42.7244C43.0043 37.8913 43.2728 37.9887 43.4708 38.1621C43.6688 38.3355 43.78 38.5707 43.78 38.8159C43.78 39.0612 43.6688 39.2964 43.4708 39.4698C43.2728 39.6432 43.0043 39.7406 42.7244 39.7406H23.7231C23.4432 39.7406 23.1747 39.6432 22.9767 39.4698C22.7787 39.2964 22.6675 39.0612 22.6675 38.8159ZM10 36.9666C10 36.2308 10.3337 35.5252 10.9276 35.005C11.5215 34.4848 12.327 34.1925 13.1669 34.1925H15.2781C16.118 34.1925 16.9235 34.4848 17.5174 35.005C18.1113 35.5252 18.445 36.2308 18.445 36.9666V38.8159C18.445 39.5517 18.1113 40.2573 17.5174 40.7775C16.9235 41.2977 16.118 41.59 15.2781 41.59H13.1669C12.327 41.59 11.5215 41.2977 10.9276 40.7775C10.3337 40.2573 10 39.5517 10 38.8159V36.9666ZM10 25.8703C10 25.1346 10.3337 24.429 10.9276 23.9088C11.5215 23.3885 12.327 23.0963 13.1669 23.0963H15.2781C16.118 23.0963 16.9235 23.3885 17.5174 23.9088C18.1113 24.429 18.445 25.1346 18.445 25.8703V27.7197C18.445 28.4554 18.1113 29.161 17.5174 29.6812C16.9235 30.2015 16.118 30.4937 15.2781 30.4937H13.1669C12.327 30.4937 11.5215 30.2015 10.9276 29.6812C10.3337 29.161 10 28.4554 10 27.7197V25.8703ZM10 14.7741C10 14.0383 10.3337 13.3327 10.9276 12.8125C11.5215 12.2923 12.327 12 13.1669 12H15.2781C16.118 12 16.9235 12.2923 17.5174 12.8125C18.1113 13.3327 18.445 14.0383 18.445 14.7741V16.6234C18.445 17.3592 18.1113 18.0648 17.5174 18.585C16.9235 19.1052 16.118 19.3975 15.2781 19.3975H13.1669C12.327 19.3975 11.5215 19.1052 10.9276 18.585C10.3337 18.0648 10 17.3592 10 16.6234V14.7741Z" fill="white" stroke="white"/>
<defs>
<linearGradient id="paint0_linear_415_20" x1="6.06977" y1="10.1395" x2="58.322" y2="24.104" gradientUnits="userSpaceOnUse">
<stop stop-color="#5D05B5"/>
<stop offset="0.58946" stop-color="#9E1E7C"/>
<stop offset="1" stop-color="#DC3545"/>
</linearGradient>
<linearGradient id="paint1_linear_415_20" x1="6.06977" y1="10.1395" x2="58.322" y2="24.104" gradientUnits="userSpaceOnUse">
<stop stop-color="#5D05B5"/>
<stop offset="0.58946" stop-color="#9E1E7C"/>
<stop offset="1" stop-color="#DC3545"/>
</linearGradient>
</defs>
</svg>
