<svg width="54" height="54" viewBox="0 0 54 54" fill="none" xmlns="http://www.w3.org/2000/svg">
<path d="M52 15.8889V38.1111C52 41.7947 50.5367 45.3274 47.932 47.932C45.3274 50.5367 41.7947 52 38.1111 52H15.8889C12.2053 52 8.67263 50.5367 6.06796 47.932C3.46329 45.3274 2 41.7947 2 38.1111V15.8889C2 12.2053 3.46329 8.67263 6.06796 6.06796C8.67263 3.46329 12.2053 2 15.8889 2H38.1111C41.7947 2 45.3274 3.46329 47.932 6.06796C50.5367 8.67263 52 12.2053 52 15.8889Z" stroke="black" stroke-width="2.5" stroke-linecap="round" stroke-linejoin="round"/>
<path d="M22.5 16.0972C22.5 15.821 22.6185 15.556 22.8295 15.3607C23.0405 15.1653 23.3266 15.0556 23.625 15.0556H43.875C44.1734 15.0556 44.4595 15.1653 44.6705 15.3607C44.8815 15.556 45 15.821 45 16.0972C45 16.3735 44.8815 16.6385 44.6705 16.8338C44.4595 17.0292 44.1734 17.1389 43.875 17.1389H23.625C23.3266 17.1389 23.0405 17.0292 22.8295 16.8338C22.6185 16.6385 22.5 16.3735 22.5 16.0972ZM22.5 28.5972C22.5 28.321 22.6185 28.056 22.8295 27.8607C23.0405 27.6653 23.3266 27.5556 23.625 27.5556H43.875C44.1734 27.5556 44.4595 27.6653 44.6705 27.8607C44.8815 28.056 45 28.321 45 28.5972C45 28.8735 44.8815 29.1385 44.6705 29.3338C44.4595 29.5292 44.1734 29.6389 43.875 29.6389H23.625C23.3266 29.6389 23.0405 29.5292 22.8295 29.3338C22.6185 29.1385 22.5 28.8735 22.5 28.5972ZM22.5 41.0972C22.5 40.821 22.6185 40.556 22.8295 40.3607C23.0405 40.1653 23.3266 40.0556 23.625 40.0556H43.875C44.1734 40.0556 44.4595 40.1653 44.6705 40.3607C44.8815 40.556 45 40.821 45 41.0972C45 41.3735 44.8815 41.6385 44.6705 41.8338C44.4595 42.0292 44.1734 42.1389 43.875 42.1389H23.625C23.3266 42.1389 23.0405 42.0292 22.8295 41.8338C22.6185 41.6385 22.5 41.3735 22.5 41.0972ZM9 39.0139C9 38.1851 9.35558 37.3903 9.98851 36.8042C10.6215 36.2182 11.4799 35.8889 12.375 35.8889H14.625C15.5201 35.8889 16.3786 36.2182 17.0115 36.8042C17.6444 37.3903 18 38.1851 18 39.0139V41.0972C18 41.926 17.6444 42.7209 17.0115 43.307C16.3786 43.893 15.5201 44.2222 14.625 44.2222H12.375C11.4799 44.2222 10.6215 43.893 9.98851 43.307C9.35558 42.7209 9 41.926 9 41.0972V39.0139ZM9 26.5139C9 25.6851 9.35558 24.8903 9.98851 24.3042C10.6215 23.7182 11.4799 23.3889 12.375 23.3889H14.625C15.5201 23.3889 16.3786 23.7182 17.0115 24.3042C17.6444 24.8903 18 25.6851 18 26.5139V28.5972C18 29.426 17.6444 30.2209 17.0115 30.807C16.3786 31.393 15.5201 31.7222 14.625 31.7222H12.375C11.4799 31.7222 10.6215 31.393 9.98851 30.807C9.35558 30.2209 9 29.426 9 28.5972V26.5139ZM9 14.0139C9 13.1851 9.35558 12.3903 9.98851 11.8042C10.6215 11.2182 11.4799 10.8889 12.375 10.8889H14.625C15.5201 10.8889 16.3786 11.2182 17.0115 11.8042C17.6444 12.3903 18 13.1851 18 14.0139V16.0972C18 16.9261 17.6444 17.7209 17.0115 18.307C16.3786 18.893 15.5201 19.2222 14.625 19.2222H12.375C11.4799 19.2222 10.6215 18.893 9.98851 18.307C9.35558 17.7209 9 16.9261 9 16.0972V14.0139Z" fill="black" stroke="black" stroke-width="0.5"/>
</svg>
