<svg width="167" height="135" viewBox="0 0 167 135" fill="none" xmlns="http://www.w3.org/2000/svg">
<path d="M40.3574 44.3203L52.6813 45.4721L47.302 22.1504C46.8191 20.049 45.7029 18.1032 44.0724 16.5202C42.4419 14.9372 40.3577 13.7764 38.0424 13.1613L13.3009 6.55908C8.39001 5.25287 3.439 8.50649 3.439 13.0663C3.439 17.3531 8.24284 20.3455 12.779 18.8849L16.2179 18.1961L30.0807 21.8416C31.4288 22.1977 32.648 22.8607 33.6178 23.765C34.5876 24.6689 35.2732 25.7827 35.6073 26.9951L40.3574 44.3203ZM53.1365 93.8255L61.7136 126.183L72.1376 122.918L65.7149 93.8255H53.1365Z" fill="black" fill-opacity="0.9"/>
<path d="M59.198 116.684H143.392V126.575H61.0982L59.198 116.684Z" fill="#65878D"/>
<path d="M165.993 52.6562L156.077 95.5469C155.315 98.8721 152.023 101.247 148.209 101.247H56.522C55.9164 101.247 55.3287 101.065 54.8551 100.731C54.3812 100.397 54.0488 99.9297 53.9128 99.4064L37.8285 37.6467C37.4138 36.0673 38.8589 34.6068 40.6788 34.7494L158.847 44.1301C159.974 44.2194 161.065 44.5183 162.052 45.0083C163.039 45.498 163.897 46.1675 164.572 46.9725C165.247 47.7776 165.722 48.7 165.967 49.6797C166.212 50.6591 166.22 51.6736 165.993 52.6562ZM147.326 53.9503L141.626 53.4993C141.07 53.4549 140.51 53.5139 139.982 53.6721C139.453 53.8302 138.968 54.0844 138.556 54.4185C138.144 54.7526 137.816 55.1592 137.591 55.6122C137.366 56.0651 137.25 56.5548 137.25 57.0496V62.7732C137.25 64.7443 139.043 66.3358 141.264 66.3358H147.259C149.159 66.3358 150.805 65.1484 151.193 63.4857L152.076 59.6385C152.232 58.9836 152.23 58.3069 152.07 57.653C151.909 56.9992 151.593 56.383 151.145 55.8454C150.695 55.3076 150.123 54.8603 149.465 54.5339C148.806 54.2074 148.077 54.0084 147.326 53.9503ZM96.1967 75.8236H88.5966C86.3752 75.8236 84.582 77.4147 84.582 79.3858V86.9973C84.582 88.9684 86.3752 90.5599 88.5966 90.5599H96.1967C98.4181 90.5599 100.211 88.9684 100.211 86.9973V79.3858C100.211 77.4147 98.4181 75.8236 96.1967 75.8236ZM88.5966 66.3237H96.1967C98.4181 66.3237 100.211 64.7326 100.211 62.7614V53.4638C100.211 51.6232 98.6188 50.0793 96.5583 49.9133L88.9578 49.3076C88.4022 49.2632 87.8422 49.3218 87.3137 49.4803C86.785 49.6385 86.2998 49.8927 85.888 50.227C85.4764 50.5608 85.1475 50.9671 84.9225 51.4204C84.6978 51.8736 84.5818 52.363 84.582 52.8581V62.7614C84.582 64.7326 86.3752 66.3237 88.5966 66.3237ZM110.916 79.3858V86.9973C110.916 88.9684 112.709 90.5599 114.93 90.5599H122.531C124.752 90.5599 126.545 88.9684 126.545 86.9973V79.3858C126.545 77.4147 124.752 75.8236 122.531 75.8236H114.93C112.709 75.8236 110.916 77.4147 110.916 79.3858ZM114.93 66.3237H122.531C124.752 66.3237 126.545 64.7326 126.545 62.7614V55.5535C126.545 53.7129 124.953 52.1694 122.892 52.003L115.291 51.3973C114.736 51.3532 114.176 51.4122 113.648 51.5703C113.119 51.7285 112.634 51.983 112.222 52.3167C111.81 52.6508 111.482 53.0575 111.257 53.5104C111.032 53.9633 110.916 54.453 110.916 54.9478V62.7614C110.916 64.7326 112.709 66.3237 114.93 66.3237ZM53.7251 51.1957L56.95 63.557C57.1542 64.3405 57.6518 65.0397 58.3616 65.5399C59.0712 66.0404 59.9512 66.3126 60.8574 66.312H69.8628C72.0842 66.312 73.8773 64.7209 73.8773 62.7494V51.3735C73.8773 49.5332 72.2847 47.9893 70.2241 47.8232L58.0073 46.8496C55.2773 46.6356 53.1097 48.8442 53.7251 51.1957ZM68.2303 90.5599H71.1875C72.6595 90.5599 73.8638 89.4911 73.8638 88.1849V79.3858C73.8638 77.4147 72.0707 75.8236 69.8495 75.8236H65.1795C62.5971 75.8236 60.6835 77.9608 61.2724 80.1931L63.0118 86.8908C63.289 87.9342 63.955 88.8644 64.9019 89.5304C65.8492 90.1963 67.022 90.5589 68.2303 90.5599ZM147.527 79.3504C147.955 77.5215 146.376 75.8115 144.275 75.8115H141.264C139.043 75.8115 137.25 77.403 137.25 79.3741V87.6033C137.25 87.99 137.336 88.3729 137.503 88.7301C137.669 89.0873 137.914 89.4118 138.222 89.6854C138.53 89.9589 138.896 90.1757 139.299 90.324C139.701 90.4717 140.133 90.5478 140.568 90.5478C143.111 90.5478 145.305 88.9567 145.814 86.7481L147.527 79.3504Z" fill="url(#paint0_linear_428_29)"/>
<path d="M67.521 134.887C59.3917 134.887 52.8018 129.039 52.8018 121.825C52.8018 114.611 59.3917 108.763 67.521 108.763C75.6502 108.763 82.2402 114.611 82.2402 121.825C82.2402 129.039 75.6502 134.887 67.521 134.887Z" fill="#2F2F2F"/>
<path d="M67.521 127.917C63.7297 127.917 60.6563 125.19 60.6563 121.825C60.6563 118.461 63.7297 115.734 67.521 115.734C71.3119 115.734 74.3853 118.461 74.3853 121.825C74.3853 125.19 71.3119 127.917 67.521 127.917Z" fill="#65878D"/>
<path d="M138.227 134.887C130.097 134.887 123.507 129.039 123.507 121.825C123.507 114.611 130.097 108.763 138.227 108.763C146.356 108.763 152.946 114.611 152.946 121.825C152.946 129.039 146.356 134.887 138.227 134.887Z" fill="#2F2F2F"/>
<path d="M138.227 127.917C134.436 127.917 131.362 125.19 131.362 121.825C131.362 118.461 134.436 115.734 138.227 115.734C142.018 115.734 145.091 118.461 145.091 121.825C145.091 125.19 142.018 127.917 138.227 127.917Z" fill="#65878D"/>
<path d="M9.91539 23.6582C4.43927 23.6582 0 19.7187 0 14.8591C0 9.99952 4.43927 6.06006 9.91539 6.06006C15.3915 6.06006 19.8308 9.99952 19.8308 14.8591C19.8308 19.7187 15.3915 23.6582 9.91539 23.6582Z" fill="#DC3545"/>
<path d="M64.5516 29.3396C63.0366 29.2737 61.6876 28.9507 60.5041 28.3707C59.3215 27.7774 58.3263 26.9872 57.5189 26.0005C56.7235 25.0145 56.126 23.8848 55.7263 22.6119C55.3272 21.3257 55.1534 19.97 55.2048 18.5448L55.2334 17.7531C55.292 16.1299 55.556 14.6545 56.0252 13.3268C56.4948 11.999 57.138 10.8573 57.9552 9.90155C58.7847 8.94634 59.7738 8.22935 60.9232 7.75065C62.0729 7.25873 63.3571 7.04358 64.776 7.10526C66.1587 7.16536 67.376 7.46938 68.428 8.01734C69.4801 8.56532 70.35 9.31686 71.0382 10.2719C71.7382 11.2275 72.2514 12.3601 72.5774 13.6695C72.904 14.9657 73.0389 16.399 72.9823 17.9694L72.8965 20.3447L57.386 19.6706L57.5232 15.87L67.9296 16.3223L67.9455 15.8869C67.9738 15.0951 67.8672 14.3834 67.6249 13.7516C67.3953 13.1072 67.0285 12.5891 66.5249 12.1971C66.0212 11.8051 65.3665 11.5916 64.5611 11.5566C63.8758 11.5268 63.2806 11.6662 62.7758 11.9747C62.271 12.2831 61.8514 12.7275 61.5175 13.3077C61.1955 13.8885 60.9417 14.578 60.7563 15.3762C60.5836 16.1616 60.4799 17.0295 60.4455 17.9796L60.4169 18.7714C60.386 19.6291 60.4657 20.4256 60.656 21.1608C60.8582 21.8965 61.1542 22.5371 61.5441 23.0829C61.9458 23.629 62.4362 24.0601 63.0146 24.3758C63.6055 24.6924 64.2795 24.8671 65.037 24.9C65.9747 24.9406 66.8538 24.7805 67.6734 24.4198C68.506 24.0461 69.2315 23.4633 69.8501 22.6706L72.2667 25.7891C71.8344 26.4179 71.253 27.0138 70.5221 27.5767C69.8033 28.1403 68.9441 28.5919 67.9443 28.932C66.9451 29.2585 65.8142 29.3945 64.5516 29.3396ZM89.799 22.487C89.8178 21.9723 89.7623 21.5073 89.6327 21.0919C89.5157 20.6639 89.2769 20.2702 88.9168 19.9109C88.5566 19.5384 88.0463 19.166 87.3853 18.7936C86.7245 18.4213 85.8657 18.0271 84.809 17.6111C83.6336 17.1371 82.5206 16.6129 81.4697 16.0385C80.4306 15.4647 79.5148 14.8103 78.7224 14.0754C77.9426 13.3278 77.335 12.4753 76.9001 11.518C76.477 10.5612 76.2878 9.46257 76.3326 8.22212C76.3759 7.02127 76.6555 5.94304 77.1718 4.98742C77.6885 4.01861 78.3923 3.20333 79.2832 2.54155C80.1747 1.86659 81.2164 1.36336 82.4085 1.03189C83.6125 0.700919 84.9242 0.566276 86.3427 0.627955C88.2788 0.712076 89.9541 1.16821 91.3695 1.99629C92.7846 2.82437 93.8649 3.92209 94.6103 5.28938C95.3678 6.65721 95.7158 8.19889 95.6537 9.91439L90.2793 9.68079C90.3096 8.83626 90.1742 8.09021 89.8724 7.44266C89.583 6.78247 89.1204 6.2535 88.4844 5.85582C87.8606 5.45861 87.0616 5.23886 86.0877 5.19651C85.1497 5.15575 84.3625 5.28016 83.726 5.56967C83.0898 5.84602 82.6058 6.24133 82.2742 6.75556C81.943 7.25664 81.7657 7.83049 81.7426 8.47708C81.7249 8.96536 81.8171 9.41214 82.0192 9.81743C82.2335 10.2232 82.5567 10.6074 82.9893 10.9698C83.4216 11.3322 83.957 11.6793 84.5955 12.0111C85.2338 12.3428 85.9745 12.6724 86.8178 12.9998C88.2314 13.5371 89.4686 14.1261 90.5294 14.767C91.602 15.4083 92.4917 16.1145 93.1984 16.8853C93.9054 17.6562 94.4281 18.5182 94.7671 19.4713C95.1059 20.4245 95.254 21.4949 95.2113 22.6826C95.166 23.9362 94.9031 25.0481 94.4223 26.0186C93.9418 26.9888 93.2683 27.7989 92.4019 28.4487C91.5355 29.0981 90.5126 29.5758 89.3335 29.8813C88.1543 30.1869 86.8435 30.3086 85.4007 30.2458C84.102 30.1894 82.8281 29.9488 81.5791 29.5244C80.3304 29.087 79.2029 28.4629 78.1965 27.6528C77.2022 26.843 76.4198 25.8309 75.8494 24.6167C75.2791 23.4021 75.0232 21.9835 75.0815 20.3603L80.5103 20.5963C80.4779 21.4937 80.5767 22.2579 80.8069 22.8893C81.037 23.5203 81.3738 24.0373 81.8168 24.4398C82.2719 24.8427 82.8148 25.1441 83.4459 25.3431C84.089 25.5431 84.7954 25.6595 85.565 25.6931C86.5027 25.7339 87.2776 25.6221 87.8892 25.358C88.5127 25.0943 88.9783 24.7114 89.2853 24.2094C89.6047 23.7076 89.7759 23.1336 89.799 22.487ZM104.457 0.225737L103.36 30.6297L98.1659 30.404L99.2631 0L104.457 0.225737ZM103.034 19.1368L101.61 19.0748C101.675 17.5842 101.905 16.2196 102.299 14.9811C102.693 13.7294 103.232 12.6558 103.915 11.7603C104.598 10.8516 105.399 10.1596 106.32 9.68409C107.252 9.20916 108.271 8.99572 109.377 9.0438C110.339 9.08561 111.206 9.27525 111.976 9.61274C112.759 9.93756 113.421 10.4421 113.963 11.1265C114.517 11.7982 114.931 12.6687 115.205 13.738C115.48 14.8073 115.59 16.0941 115.536 17.5984L115.047 31.1377L109.817 30.9105L110.307 17.3315C110.341 16.3814 110.242 15.6303 110.009 15.0783C109.788 14.5136 109.448 14.1089 108.987 13.8642C108.539 13.6068 107.978 13.4635 107.304 13.4342C106.559 13.4018 105.916 13.5259 105.376 13.8064C104.848 14.0874 104.418 14.4917 104.086 15.0191C103.754 15.5334 103.503 16.1437 103.334 16.85C103.164 17.5564 103.064 18.3186 103.034 19.1368ZM118.546 20.7824L118.561 20.3667C118.617 18.7964 118.874 17.3603 119.33 16.0584C119.787 14.7434 120.424 13.6146 121.241 12.672C122.058 11.7295 123.047 11.0125 124.209 10.5211C125.371 10.0165 126.691 9.79635 128.17 9.86063C129.649 9.92491 130.956 10.2592 132.09 10.8636C133.225 11.4549 134.165 12.2557 134.912 13.2662C135.67 14.2772 136.23 15.458 136.59 16.8086C136.951 18.146 137.104 19.5998 137.047 21.1702L137.032 21.5859C136.976 23.1431 136.72 24.5793 136.262 25.8943C135.806 27.1961 135.163 28.3244 134.334 29.2797C133.517 30.2224 132.528 30.9393 131.366 31.4306C130.204 31.9222 128.884 32.1355 127.405 32.0715C125.926 32.0072 124.619 31.6794 123.485 31.0883C122.362 30.4975 121.421 29.6965 120.663 28.6858C119.917 27.662 119.364 26.4813 119.003 25.1441C118.642 23.7935 118.49 22.3396 118.546 20.7824ZM123.755 20.5925L123.74 21.0081C123.708 21.9055 123.75 22.7466 123.866 23.5314C123.982 24.3162 124.186 25.0126 124.477 25.6198C124.781 26.2145 125.185 26.688 125.69 27.0404C126.195 27.3929 126.82 27.5853 127.566 27.6176C128.287 27.649 128.912 27.5111 129.441 27.2037C129.97 26.8962 130.402 26.4588 130.735 25.8918C131.069 25.3118 131.322 24.6354 131.495 23.8629C131.679 23.0912 131.788 22.2566 131.82 21.3593L131.835 20.9436C131.866 20.0727 131.818 19.2512 131.689 18.479C131.573 17.6941 131.363 16.9977 131.06 16.3898C130.769 15.7692 130.372 15.2761 129.867 14.9105C129.362 14.5449 128.743 14.3462 128.01 14.3143C127.276 14.2825 126.645 14.4268 126.116 14.7475C125.598 15.0686 125.166 15.5256 124.82 16.1186C124.486 16.6988 124.232 17.3751 124.06 18.1474C123.888 18.9065 123.787 19.7215 123.755 20.5925ZM145.664 15.1411L144.743 40.6759L139.549 40.4499L140.619 10.7982L145.434 11.0075L145.664 15.1411ZM157.789 22.0321L157.774 22.4477C157.718 24.0049 157.498 25.4427 157.113 26.7609C156.74 28.0794 156.217 29.2198 155.544 30.1818C154.872 31.1308 154.051 31.8617 153.081 32.3745C152.123 32.8747 151.032 33.0984 149.805 33.0449C148.615 32.9932 147.59 32.6845 146.732 32.1184C145.873 31.5523 145.16 30.7812 144.593 29.8049C144.039 28.816 143.604 27.6804 143.289 26.398C142.974 25.1152 142.747 23.7441 142.607 22.2842L142.646 21.1955C142.895 19.6467 143.223 18.2335 143.63 16.9559C144.038 15.6652 144.553 14.5576 145.177 13.6331C145.813 12.6958 146.573 11.9822 147.458 11.4919C148.355 11.0022 149.392 10.783 150.57 10.8342C151.809 10.888 152.888 11.1926 153.807 11.7481C154.738 12.304 155.505 13.0775 156.108 14.0685C156.722 15.06 157.168 16.2293 157.444 17.5762C157.733 18.9236 157.848 20.4089 157.789 22.0321ZM152.562 22.2212L152.577 21.8055C152.61 20.895 152.568 20.0539 152.451 19.2822C152.347 18.4979 152.155 17.8089 151.876 17.2152C151.608 16.6221 151.239 16.1566 150.77 15.819C150.313 15.4687 149.748 15.279 149.074 15.2497C148.365 15.2189 147.753 15.3178 147.239 15.5466C146.737 15.7759 146.321 16.1213 145.992 16.5828C145.662 17.0443 145.407 17.6015 145.227 18.2545C145.047 18.9075 144.924 19.649 144.857 20.4788L144.758 23.2303C144.783 24.2094 144.92 25.094 145.168 25.8848C145.417 26.662 145.822 27.2877 146.383 27.7615C146.944 28.2354 147.693 28.4924 148.631 28.5333C149.317 28.5631 149.9 28.4233 150.381 28.1137C150.862 27.791 151.257 27.339 151.568 26.7577C151.89 26.1767 152.125 25.4997 152.273 24.7263C152.433 23.9536 152.53 23.1184 152.562 22.2212Z" fill="#DC3545"/>
<defs>
<linearGradient id="paint0_linear_428_29" x1="48.2081" y1="45.5665" x2="161.749" y2="104.15" gradientUnits="userSpaceOnUse">
<stop stop-color="#5D05B5"/>
<stop offset="0.58946" stop-color="#9E1E7C"/>
<stop offset="1" stop-color="#DC3545"/>
</linearGradient>
</defs>
</svg>
