<svg width="40" height="35" viewBox="0 0 40 35" fill="none" xmlns="http://www.w3.org/2000/svg">
<path d="M8.63616 9.56015L11.2733 9.84796L10.1222 4.02047C10.0189 3.49537 9.78004 3.00917 9.43113 2.61363C9.08222 2.21808 8.63622 1.92802 8.14078 1.77433L2.8464 0.124596C1.79554 -0.201793 0.736084 0.611206 0.736084 1.75059C0.736084 2.82173 1.76405 3.56946 2.73473 3.2045L3.47062 3.0324L6.43707 3.94332C6.72554 4.03228 6.98646 4.19795 7.19397 4.42391C7.40149 4.64979 7.5482 4.92809 7.6197 5.23103L8.63616 9.56015ZM11.3707 21.9302L13.2061 30.0156L15.4367 29.1996L14.0623 21.9302H11.3707Z" fill="black" fill-opacity="0.9"/>
<path d="M14.7791 30.0543H35.7982V32.7417H15.2535L14.7791 30.0543Z" fill="#65878D"/>
<path d="M39.9589 12.6593L37.4834 24.3119C37.2931 25.2153 36.4713 25.8605 35.5191 25.8605H12.6293C12.4781 25.8606 12.3314 25.8112 12.2132 25.7204C12.0949 25.6296 12.0119 25.5027 11.9779 25.3605L7.96245 8.58151C7.85891 8.15242 8.21969 7.75562 8.67405 7.79437L38.175 10.3429C38.4562 10.3672 38.7288 10.4484 38.9752 10.5815C39.2214 10.7146 39.4358 10.8965 39.6043 11.1152C39.7728 11.3339 39.8914 11.5845 39.9525 11.8507C40.0136 12.1167 40.0157 12.3924 39.9589 12.6593ZM35.2987 13.0109L33.8756 12.8884C33.737 12.8763 33.5972 12.8923 33.4652 12.9353C33.3332 12.9783 33.212 13.0473 33.1092 13.1381C33.0065 13.2289 32.9244 13.3393 32.8683 13.4624C32.8122 13.5855 32.7832 13.7185 32.7833 13.8529V15.4079C32.7833 15.9434 33.2309 16.3758 33.7854 16.3758H35.282C35.7564 16.3758 36.1672 16.0532 36.2641 15.6015L36.4846 14.5563C36.5236 14.3784 36.523 14.1945 36.4829 14.0169C36.4429 13.8392 36.3641 13.6718 36.252 13.5258C36.1398 13.3796 35.9969 13.2581 35.8326 13.1694C35.6682 13.0808 35.4863 13.0267 35.2987 13.0109ZM22.5342 18.9535H20.6368C20.0822 18.9535 19.6346 19.3858 19.6346 19.9213V21.9892C19.6346 22.5247 20.0822 22.9571 20.6368 22.9571H22.5342C23.0888 22.9571 23.5364 22.5247 23.5364 21.9892V19.9213C23.5364 19.3858 23.0888 18.9535 22.5342 18.9535ZM20.6368 16.3725H22.5342C23.0888 16.3725 23.5364 15.9403 23.5364 15.4047V12.8787C23.5364 12.3787 23.1389 11.9592 22.6245 11.9141L20.727 11.7496C20.5883 11.7375 20.4485 11.7534 20.3165 11.7965C20.1845 11.8395 20.0634 11.9085 19.9606 11.9994C19.8579 12.09 19.7757 12.2004 19.7196 12.3236C19.6635 12.4467 19.6345 12.5797 19.6346 12.7142V15.4047C19.6346 15.9403 20.0822 16.3725 20.6368 16.3725ZM26.2089 19.9213V21.9892C26.2089 22.5247 26.6565 22.9571 27.211 22.9571H29.1086C29.6631 22.9571 30.1107 22.5247 30.1107 21.9892V19.9213C30.1107 19.3858 29.6631 18.9535 29.1086 18.9535H27.211C26.6565 18.9535 26.2089 19.3858 26.2089 19.9213ZM27.211 16.3725H29.1086C29.6631 16.3725 30.1107 15.9403 30.1107 15.4047V13.4465C30.1107 12.9464 29.7132 12.5271 29.1988 12.4818L27.3012 12.3173C27.1626 12.3053 27.0228 12.3213 26.8909 12.3643C26.7589 12.4073 26.6377 12.4764 26.535 12.5671C26.4322 12.6579 26.3501 12.7683 26.2939 12.8914C26.2378 13.0144 26.2089 13.1475 26.2089 13.2819V15.4047C26.2089 15.9403 26.6565 16.3725 27.211 16.3725ZM11.9311 12.2625L12.7362 15.6209C12.7872 15.8337 12.9114 16.0237 13.0886 16.1596C13.2657 16.2956 13.4854 16.3695 13.7117 16.3694H15.9599C16.5145 16.3694 16.9621 15.9371 16.9621 15.4015V12.3108C16.9621 11.8109 16.5645 11.3914 16.0501 11.3463L13.0001 11.0818C12.3186 11.0236 11.7774 11.6237 11.9311 12.2625ZM15.5523 22.9571H16.2906C16.6581 22.9571 16.9587 22.6667 16.9587 22.3118V19.9213C16.9587 19.3858 16.5111 18.9535 15.9566 18.9535H14.7907C14.146 18.9535 13.6683 19.5341 13.8153 20.1406L14.2495 21.9602C14.3187 22.2437 14.485 22.4964 14.7214 22.6774C14.9579 22.8583 15.2507 22.9568 15.5523 22.9571ZM35.3488 19.9116C35.4558 19.4148 35.0615 18.9502 34.537 18.9502H33.7854C33.2309 18.9502 32.7833 19.3826 32.7833 19.9181V22.1538C32.7833 22.2589 32.8047 22.3629 32.8463 22.4599C32.8879 22.557 32.9489 22.6452 33.0259 22.7195C33.1029 22.7938 33.1941 22.8527 33.2946 22.893C33.3952 22.9331 33.5029 22.9538 33.6117 22.9538C34.2464 22.9538 34.7943 22.5215 34.9212 21.9215L35.3488 19.9116Z" fill="url(#paint0_linear_130_151)"/>
<path d="M16.8568 34.9999C14.8273 34.9999 13.1821 33.4111 13.1821 31.4512C13.1821 29.4913 14.8273 27.9025 16.8568 27.9025C18.8863 27.9025 20.5315 29.4913 20.5315 31.4512C20.5315 33.4111 18.8863 34.9999 16.8568 34.9999Z" fill="#2F2F2F"/>
<path d="M16.8568 33.1062C15.9103 33.1062 15.1431 32.3653 15.1431 31.4512C15.1431 30.5373 15.9103 29.7963 16.8568 29.7963C17.8033 29.7963 18.5705 30.5373 18.5705 31.4512C18.5705 32.3653 17.8033 33.1062 16.8568 33.1062Z" fill="#65878D"/>
<path d="M34.5085 34.9999C32.479 34.9999 30.8337 33.4111 30.8337 31.4512C30.8337 29.4913 32.479 27.9025 34.5085 27.9025C36.5379 27.9025 38.1832 29.4913 38.1832 31.4512C38.1832 33.4111 36.5379 34.9999 34.5085 34.9999Z" fill="#2F2F2F"/>
<path d="M34.5084 33.1062C33.5619 33.1062 32.7947 32.3653 32.7947 31.4512C32.7947 30.5373 33.5619 29.7963 34.5084 29.7963C35.4549 29.7963 36.2221 30.5373 36.2221 31.4512C36.2221 32.3653 35.4549 33.1062 34.5084 33.1062Z" fill="#65878D"/>
<path d="M2.4754 4.78108C1.10827 4.78108 0 3.7108 0 2.39054C0 1.07028 1.10827 0 2.4754 0C3.84252 0 4.95079 1.07028 4.95079 2.39054C4.95079 3.7108 3.84252 4.78108 2.4754 4.78108Z" fill="#DC3545"/>
<defs>
<linearGradient id="paint0_linear_130_151" x1="10.6309" y1="11.1842" x2="39.782" y2="24.6859" gradientUnits="userSpaceOnUse">
<stop stop-color="#5D05B5"/>
<stop offset="0.58946" stop-color="#9E1E7C"/>
<stop offset="1" stop-color="#DC3545"/>
</linearGradient>
</defs>
</svg>
