<svg width="54" height="54" viewBox="0 0 54 54" fill="none" xmlns="http://www.w3.org/2000/svg">
<path d="M19.1848 41.2853C18.7752 41.2853 18.3697 41.1932 17.9913 41.014C17.6129 40.8349 17.2691 40.5724 16.9795 40.2414C16.6899 39.9104 16.4602 39.5175 16.3034 39.0851C16.1467 38.6526 16.066 38.1891 16.066 37.7211C16.066 37.253 16.1467 36.7895 16.3034 36.3571C16.4602 35.9246 16.6899 35.5317 16.9795 35.2007C17.2691 34.8698 17.6129 34.6072 17.9913 34.4281C18.3697 34.249 18.7752 34.1568 19.1848 34.1568C20.0119 34.1568 20.8052 34.5323 21.3901 35.2007C21.975 35.8692 22.3035 36.7758 22.3035 37.7211C22.3035 38.6664 21.975 39.573 21.3901 40.2414C20.8052 40.9098 20.0119 41.2853 19.1848 41.2853ZM17.816 27.0121C17.4113 27.0578 17.007 26.9211 16.6893 26.631C16.3716 26.3409 16.1656 25.9204 16.1153 25.4592C16.0649 24.9981 16.1742 24.5326 16.4198 24.1622C16.6655 23.7918 17.028 23.5457 17.4301 23.4764C19.2114 23.222 21.0197 23.4033 22.735 24.0085C24.4503 24.6137 26.0334 25.6288 27.3792 26.9865C28.7251 28.3443 29.8029 30.0136 30.5411 31.8837C31.2794 33.7538 31.6613 35.7819 31.6613 37.8336V39.5032C31.6613 39.9759 31.4971 40.4292 31.2046 40.7634C30.9122 41.0976 30.5155 41.2853 30.102 41.2853C29.6884 41.2853 29.2918 41.0976 28.9993 40.7634C28.7069 40.4292 28.5426 39.9759 28.5426 39.5032V37.8353C28.5424 36.289 28.2545 34.7604 27.698 33.3509C27.1415 31.9414 26.3291 30.6833 25.3148 29.6599C24.3004 28.6366 23.1072 27.8715 21.8144 27.4153C20.5216 26.9591 19.1586 26.8223 17.816 27.0139V27.0121ZM16.066 14.6693C16.0522 14.4356 16.0789 14.201 16.1445 13.9791C16.2101 13.7572 16.3133 13.5522 16.4483 13.3759C16.5832 13.1996 16.7473 13.0554 16.931 12.9516C17.1148 12.8478 17.3146 12.7865 17.5192 12.7711C29.6863 11.8443 40.2035 22.3639 41.0145 36.2675C41.0801 37.3853 41.0801 38.5068 41.0145 39.6246C41.0008 39.8582 40.9471 40.0864 40.8562 40.2962C40.7654 40.506 40.6393 40.6934 40.4852 40.8475C40.331 41.0016 40.1518 41.1195 39.9578 41.1945C39.7637 41.2695 39.5587 41.3 39.3543 41.2845C39.1499 41.2689 38.9503 41.2074 38.7667 41.1036C38.5831 40.9998 38.4192 40.8557 38.2843 40.6796C38.1495 40.5034 38.0463 40.2986 37.9807 40.0768C37.9151 39.855 37.8883 39.6207 37.902 39.3871C37.9582 38.4264 37.9582 37.4639 37.902 36.505C37.2067 24.5657 28.1754 15.5318 17.7301 16.3282C17.5253 16.3445 17.3198 16.3144 17.1252 16.2396C16.9307 16.1649 16.751 16.047 16.5964 15.8927C16.4418 15.7384 16.3153 15.5508 16.2243 15.3405C16.1333 15.1303 16.0795 14.9016 16.066 14.6675V14.6693Z" fill="url(#paint0_linear_237_19)" stroke="url(#paint1_linear_237_19)"/>
<path d="M52 15.8889V38.1111C52 41.7947 50.5367 45.3274 47.932 47.932C45.3274 50.5367 41.7947 52 38.1111 52H15.8889C12.2053 52 8.67263 50.5367 6.06796 47.932C3.46329 45.3274 2 41.7947 2 38.1111V15.8889C2 12.2053 3.46329 8.67263 6.06796 6.06796C8.67263 3.46329 12.2053 2 15.8889 2H38.1111C41.7947 2 45.3274 3.46329 47.932 6.06796C50.5367 8.67263 52 12.2053 52 15.8889Z" stroke="url(#paint2_linear_237_19)" stroke-width="3" stroke-linecap="round" stroke-linejoin="round"/>
<defs>
<linearGradient id="paint0_linear_237_19" x1="18.1577" y1="18.0791" x2="44.4017" y2="24.0739" gradientUnits="userSpaceOnUse">
<stop stop-color="#5D05B5"/>
<stop offset="0.58946" stop-color="#9E1E7C"/>
<stop offset="1" stop-color="#DC3545"/>
</linearGradient>
<linearGradient id="paint1_linear_237_19" x1="18.1577" y1="18.0791" x2="44.4017" y2="24.0739" gradientUnits="userSpaceOnUse">
<stop stop-color="#5D05B5"/>
<stop offset="0.58946" stop-color="#9E1E7C"/>
<stop offset="1" stop-color="#DC3545"/>
</linearGradient>
<linearGradient id="paint2_linear_237_19" x1="6.19016" y1="11.3876" x2="57.8904" y2="24.8851" gradientUnits="userSpaceOnUse">
<stop stop-color="#5D05B5"/>
<stop offset="0.58946" stop-color="#9E1E7C"/>
<stop offset="1" stop-color="#DC3545"/>
</linearGradient>
</defs>
</svg>
