<svg width="54" height="54" viewBox="0 0 54 54" fill="none" xmlns="http://www.w3.org/2000/svg">
<circle cx="27" cy="27" r="25" fill="#F4F2F4" stroke="white" stroke-width="3"/>
<path d="M18.1223 41.5711C17.7127 41.5711 17.3072 41.4789 16.9288 41.2998C16.5504 41.1207 16.2066 40.8581 15.917 40.5272C15.6274 40.1962 15.3977 39.8033 15.2409 39.3708C15.0842 38.9384 15.0035 38.4749 15.0035 38.0068C15.0035 37.5388 15.0842 37.0753 15.2409 36.6428C15.3977 36.2104 15.6274 35.8175 15.917 35.4865C16.2066 35.1555 16.5504 34.893 16.9288 34.7139C17.3072 34.5347 17.7127 34.4425 18.1223 34.4425C18.9494 34.4425 19.7427 34.8181 20.3276 35.4865C20.9125 36.1549 21.241 37.0615 21.241 38.0068C21.241 38.9521 20.9125 39.8587 20.3276 40.5272C19.7427 41.1956 18.9494 41.5711 18.1223 41.5711ZM16.7535 27.2979C16.3488 27.3436 15.9445 27.2068 15.6268 26.9167C15.3091 26.6267 15.1031 26.2062 15.0528 25.745C15.0024 25.2838 15.1117 24.8184 15.3573 24.448C15.603 24.0776 15.9655 23.8315 16.3676 23.7622C18.1489 23.5077 19.9572 23.6891 21.6725 24.2943C23.3878 24.8994 24.9709 25.9146 26.3167 27.2723C27.6626 28.63 28.7404 30.2993 29.4786 32.1694C30.2169 34.0395 30.5988 36.0677 30.5988 38.1193V39.789C30.5988 40.2616 30.4346 40.7149 30.1421 41.0491C29.8497 41.3833 29.453 41.5711 29.0395 41.5711C28.6259 41.5711 28.2293 41.3833 27.9368 41.0491C27.6444 40.7149 27.4801 40.2616 27.4801 39.789V38.1211C27.4799 36.5748 27.192 35.0462 26.6355 33.6367C26.079 32.2272 25.2666 30.969 24.2523 29.9457C23.2379 28.9224 22.0447 28.1572 20.7519 27.701C19.4591 27.2448 18.0961 27.108 16.7535 27.2997V27.2979ZM15.0035 14.955C14.9897 14.7213 15.0164 14.4868 15.082 14.2649C15.1476 14.0429 15.2508 13.8379 15.3858 13.6616C15.5207 13.4853 15.6848 13.3412 15.8685 13.2374C16.0523 13.1336 16.2521 13.0723 16.4567 13.0568C28.6238 12.13 39.141 22.6497 39.952 36.5533C40.0176 37.6711 40.0176 38.7925 39.952 39.9104C39.9383 40.144 39.8846 40.3722 39.7937 40.582C39.7029 40.7918 39.5768 40.9791 39.4227 41.1333C39.2685 41.2874 39.0893 41.4053 38.8953 41.4803C38.7012 41.5553 38.4962 41.5858 38.2918 41.5702C38.0874 41.5546 37.8878 41.4932 37.7042 41.3894C37.5206 41.2856 37.3567 41.1415 37.2218 40.9653C37.087 40.7891 36.9838 40.5843 36.9182 40.3626C36.8526 40.1408 36.8258 39.9065 36.8395 39.6729C36.8957 38.7122 36.8957 37.7497 36.8395 36.7908C36.1442 24.8515 27.1129 15.8175 16.6676 16.614C16.4628 16.6302 16.2573 16.6001 16.0627 16.5254C15.8682 16.4507 15.6885 16.3328 15.5339 16.1785C15.3793 16.0242 15.2528 15.8365 15.1618 15.6263C15.0708 15.416 15.017 15.1873 15.0035 14.9533V14.955Z" fill="url(#paint0_linear_415_29)" stroke="url(#paint1_linear_415_29)"/>
<defs>
<linearGradient id="paint0_linear_415_29" x1="17.035" y1="17.6516" x2="43.5772" y2="23.8581" gradientUnits="userSpaceOnUse">
<stop stop-color="#5D05B5"/>
<stop offset="0.58946" stop-color="#9E1E7C"/>
<stop offset="1" stop-color="#DC3545"/>
</linearGradient>
<linearGradient id="paint1_linear_415_29" x1="17.035" y1="17.6516" x2="43.5772" y2="23.8581" gradientUnits="userSpaceOnUse">
<stop stop-color="#5D05B5"/>
<stop offset="0.58946" stop-color="#9E1E7C"/>
<stop offset="1" stop-color="#DC3545"/>
</linearGradient>
</defs>
</svg>
