<svg width="80" height="80" viewBox="0 0 80 80" fill="none" xmlns="http://www.w3.org/2000/svg">
<path d="M0 40C0 17.9086 17.9086 0 40 0C62.0914 0 80 17.9086 80 40C80 62.0914 62.0914 80 40 80C17.9086 80 0 62.0914 0 40Z" fill="url(#paint0_linear_408_2)"/>
<path d="M40.0003 29.369C43.2551 29.369 45.4507 30.7749 46.7025 31.9497L51.5944 27.1734C48.5899 24.3808 44.6803 22.6667 40.0003 22.6667C33.2211 22.6667 27.3662 26.5571 24.5159 32.2193L30.1203 36.5719C31.5262 32.3927 35.4166 29.369 40.0003 29.369V29.369Z" fill="#EA4335"/>
<path d="M56.64 40.3853C56.64 38.9601 56.5244 37.9201 56.2741 36.8416H40V43.2741H49.5526C49.36 44.8727 48.32 47.2801 46.0089 48.8978L51.4785 53.1349C54.7526 50.1112 56.64 45.6623 56.64 40.3853V40.3853Z" fill="#4285F4"/>
<path d="M30.1393 43.4281C29.7734 42.3496 29.5616 41.1941 29.5616 40C29.5616 38.8059 29.7734 37.6503 30.1201 36.5718L24.5156 32.2192C23.3408 34.5689 22.6667 37.2074 22.6667 40C22.6667 42.7926 23.3408 45.4311 24.5156 47.7807L30.1393 43.4281V43.4281Z" fill="#FBBC05"/>
<path d="M40.0001 57.3334C44.6801 57.3334 48.609 55.7927 51.4786 53.1349L46.009 48.8979C44.5453 49.9186 42.5808 50.6312 40.0001 50.6312C35.4164 50.6312 31.526 47.6075 30.1394 43.4282L24.5349 47.7808C27.3853 53.443 33.2208 57.3334 40.0001 57.3334V57.3334Z" fill="#34A853"/>
<defs>
<linearGradient id="paint0_linear_408_2" x1="40" y1="0" x2="40" y2="80" gradientUnits="userSpaceOnUse">
<stop stop-color="#E7F0E7"/>
<stop offset="0.510417" stop-color="#F2F5F2"/>
<stop offset="1" stop-color="#E1E7E1"/>
</linearGradient>
</defs>
</svg>
