<svg width="54" height="54" viewBox="0 0 54 54" fill="none" xmlns="http://www.w3.org/2000/svg">
<circle cx="27" cy="27" r="25" fill="url(#paint0_linear_415_44)" stroke="url(#paint1_linear_415_44)" stroke-width="3"/>
<path d="M26.5753 16.0012C25.2162 15.9799 23.8688 16.2423 22.6289 16.7696C21.389 17.2969 20.2871 18.0763 19.4013 19.0523C19.2783 19.1602 19.1794 19.2905 19.1104 19.4353C19.0415 19.58 19.0039 19.7364 19 19.8952C18.9999 20.0417 19.031 20.1867 19.0913 20.3216C19.1516 20.4565 19.24 20.5785 19.3511 20.6804C19.4623 20.7823 19.594 20.862 19.7384 20.9147C19.8827 20.9675 20.0368 20.9922 20.1915 20.9874C20.5228 20.9797 20.8396 20.8572 21.0819 20.6431C21.7523 19.8996 22.5848 19.3023 23.5223 18.8924C24.4597 18.4825 25.4799 18.2698 26.5125 18.2687C29.4724 18.2687 31.3161 20.0733 31.3161 22.3171V22.3765C31.3161 25.0002 29.1087 26.4604 25.6221 26.7097C25.4809 26.7149 25.3425 26.7482 25.2158 26.8075C25.0892 26.8668 24.9772 26.9508 24.8872 27.0539C24.7973 27.157 24.7313 27.2769 24.6937 27.4059C24.656 27.5348 24.6476 27.6697 24.6689 27.802C24.6689 27.802 24.6689 30.5563 24.6689 31.0668C24.7001 31.3606 24.8459 31.6329 25.0778 31.8305C25.3097 32.0281 25.6111 32.1367 25.9231 32.1352H26.061C26.3715 32.1057 26.6591 31.9677 26.8679 31.7482C27.0766 31.5287 27.1914 31.2434 27.1898 30.948V28.5024C30.9523 28.0038 34 26.128 34 22.234V22.1746C33.9624 18.613 31.0276 16.0012 26.5753 16.0012V16.0012Z" fill="white" stroke="white" stroke-width="2"/>
<path d="M25.9356 38C26.8015 38 27.5034 37.3356 27.5034 36.516C27.5034 35.6964 26.8015 35.032 25.9356 35.032C25.0698 35.032 24.3679 35.6964 24.3679 36.516C24.3679 37.3356 25.0698 38 25.9356 38Z" fill="white" stroke="white" stroke-width="2"/>
<defs>
<linearGradient id="paint0_linear_415_44" x1="6.06977" y1="10.1395" x2="58.322" y2="24.104" gradientUnits="userSpaceOnUse">
<stop stop-color="#5D05B5"/>
<stop offset="0.58946" stop-color="#9E1E7C"/>
<stop offset="1" stop-color="#DC3545"/>
</linearGradient>
<linearGradient id="paint1_linear_415_44" x1="6.06977" y1="10.1395" x2="58.322" y2="24.104" gradientUnits="userSpaceOnUse">
<stop stop-color="#5D05B5"/>
<stop offset="0.58946" stop-color="#9E1E7C"/>
<stop offset="1" stop-color="#DC3545"/>
</linearGradient>
</defs>
</svg>
