<svg width="54" height="54" viewBox="0 0 54 54" fill="none" xmlns="http://www.w3.org/2000/svg">
<circle cx="27" cy="27" r="25" fill="url(#paint0_linear_504_2)" stroke="url(#paint1_linear_504_2)" stroke-width="3"/>
<path d="M30.6136 30.9467V40.1765C30.6134 40.3617 30.6498 40.5451 30.7205 40.7163C30.7913 40.8874 30.8951 41.043 31.026 41.174C31.1569 41.305 31.3123 41.409 31.4834 41.4799C31.6545 41.5508 31.8379 41.5873 32.0231 41.5873H38.3947C38.58 41.5875 38.7636 41.5511 38.9348 41.4803C39.1061 41.4094 39.2617 41.3055 39.3927 41.1745C39.5237 41.0434 39.6276 40.8878 39.6985 40.7166C39.7693 40.5453 39.8057 40.3618 39.8055 40.1765V28.6697H41.6542C42.0884 28.6695 42.5122 28.5362 42.8683 28.2876C43.2244 28.0391 43.4958 27.6873 43.6457 27.2798C43.7957 26.8722 43.817 26.4285 43.7069 26.0084C43.5967 25.5883 43.3604 25.2121 43.0298 24.9305L28.5731 12.6197C28.1033 12.2197 27.5064 12 26.8893 12C26.2722 12 25.6753 12.2197 25.2055 12.6197L10.7488 24.9305C10.4174 25.2118 10.1804 25.588 10.0698 26.0083C9.95924 26.4286 9.98042 26.8728 10.1305 27.2807C10.2805 27.6885 10.5523 28.0405 10.9089 28.2889C11.2655 28.5374 11.6898 28.6703 12.1244 28.6697H13.9731V40.1778C13.9734 40.5518 14.1222 40.9103 14.3868 41.1745C14.6513 41.4388 15.01 41.5873 15.3839 41.5873H21.7542C22.128 41.5873 22.4865 41.4388 22.7508 41.1745C23.0151 40.9101 23.1636 40.5516 23.1636 40.1778V30.9481L30.6136 30.9467Z" stroke="white" stroke-width="3.5" stroke-linecap="round" stroke-linejoin="round"/>
<defs>
<linearGradient id="paint0_linear_504_2" x1="6.06977" y1="10.1395" x2="58.322" y2="24.104" gradientUnits="userSpaceOnUse">
<stop stop-color="#5D05B5"/>
<stop offset="0.58946" stop-color="#9E1E7C"/>
<stop offset="1" stop-color="#DC3545"/>
</linearGradient>
<linearGradient id="paint1_linear_504_2" x1="6.06977" y1="10.1395" x2="58.322" y2="24.104" gradientUnits="userSpaceOnUse">
<stop stop-color="#5D05B5"/>
<stop offset="0.58946" stop-color="#9E1E7C"/>
<stop offset="1" stop-color="#DC3545"/>
</linearGradient>
</defs>
</svg>
