<svg width="54" height="54" viewBox="0 0 54 54" fill="none" xmlns="http://www.w3.org/2000/svg">
<path d="M30.7245 31.1527V40.3824C30.7243 40.5676 30.7606 40.751 30.8314 40.9222C30.9021 41.0934 31.0059 41.2489 31.1368 41.3799C31.2677 41.5109 31.4231 41.6149 31.5942 41.6858C31.7653 41.7567 31.9487 41.7932 32.1339 41.7932H38.5055C38.6909 41.7934 38.8744 41.757 39.0456 41.6862C39.2169 41.6154 39.3725 41.5114 39.5035 41.3804C39.6346 41.2494 39.7385 41.0938 39.8093 40.9225C39.8802 40.7513 39.9165 40.5677 39.9164 40.3824V28.8757H41.765C42.1993 28.8755 42.623 28.7421 42.9792 28.4936C43.3353 28.245 43.6066 27.8933 43.7565 27.4857C43.9065 27.0781 43.9278 26.6344 43.8177 26.2143C43.7076 25.7942 43.4713 25.418 43.1407 25.1365L28.6839 12.8256C28.2141 12.4256 27.6172 12.2059 27.0001 12.2059C26.3831 12.2059 25.7862 12.4256 25.3164 12.8256L10.8596 25.1365C10.5282 25.4177 10.2912 25.7939 10.1807 26.2142C10.0701 26.6346 10.0913 27.0787 10.2413 27.4866C10.3914 27.8945 10.6631 28.2464 11.0197 28.4949C11.3763 28.7433 11.8007 28.8762 12.2353 28.8757H14.0839V40.3838C14.0843 40.7577 14.2331 41.1162 14.4976 41.3805C14.7622 41.6448 15.1208 41.7932 15.4947 41.7932H21.865C22.2388 41.7932 22.5973 41.6447 22.8616 41.3804C23.126 41.1161 23.2745 40.7576 23.2745 40.3838V31.154L30.7245 31.1527Z" stroke="url(#paint0_linear_237_13)" stroke-width="3" stroke-linecap="round" stroke-linejoin="round"/>
<path d="M32.973 2H4.7027C3.9859 2 3.29846 2.28475 2.7916 2.7916C2.28475 3.29846 2 3.9859 2 4.7027V49.2973C2 50.0141 2.28475 50.7015 2.7916 51.2084C3.29846 51.7153 3.9859 52 4.7027 52H49.2973C50.0141 52 50.7015 51.7153 51.2084 51.2084C51.7153 50.7015 52 50.0141 52 49.2973V21.027" stroke="url(#paint1_linear_237_13)" stroke-width="3" stroke-linecap="round" stroke-linejoin="round"/>
<defs>
<linearGradient id="paint0_linear_237_13" x1="12.9414" y1="17.761" x2="47.2033" y2="27.9723" gradientUnits="userSpaceOnUse">
<stop stop-color="#5D05B5"/>
<stop offset="0.58946" stop-color="#9E1E7C"/>
<stop offset="1" stop-color="#DC3545"/>
</linearGradient>
<linearGradient id="paint1_linear_237_13" x1="6.19016" y1="11.3876" x2="57.8904" y2="24.8851" gradientUnits="userSpaceOnUse">
<stop stop-color="#5D05B5"/>
<stop offset="0.58946" stop-color="#9E1E7C"/>
<stop offset="1" stop-color="#DC3545"/>
</linearGradient>
</defs>
</svg>
