<svg width="80" height="80" viewBox="0 0 80 80" fill="none" xmlns="http://www.w3.org/2000/svg">
<circle cx="40" cy="40" r="40" fill="url(#paint0_linear_236_4)"/>
<path d="M50.7776 13.3333H29.2208C20.46 13.3333 13.3325 20.4608 13.3325 29.2216V50.7784C13.3325 59.5392 20.46 66.6667 29.2208 66.6667H50.7776C59.5384 66.6667 66.6659 59.5392 66.6659 50.7784V29.2216C66.6658 20.4608 59.5383 13.3333 50.7776 13.3333ZM61.3005 50.7784C61.3005 56.59 56.5892 61.3013 50.7776 61.3013H29.2208C23.4092 61.3013 18.6979 56.59 18.6979 50.7784V29.2216C18.6979 23.4099 23.4092 18.6987 29.2208 18.6987H50.7776C56.5892 18.6987 61.3005 23.4099 61.3005 29.2216V50.7784Z" fill="white"/>
<path d="M39.999 26.2061C32.393 26.2061 26.2051 32.394 26.2051 39.9999C26.2051 47.6057 32.393 53.7938 39.999 53.7938C47.6049 53.7938 53.7929 47.6058 53.7929 39.9999C53.7929 32.3939 47.6049 26.2061 39.999 26.2061ZM39.999 48.4285C35.344 48.4285 31.5704 44.655 31.5704 40C31.5704 35.3449 35.3441 31.5714 39.999 31.5714C44.654 31.5714 48.4275 35.3449 48.4275 40C48.4275 44.6549 44.6539 48.4285 39.999 48.4285Z" fill="white"/>
<path d="M53.8199 29.615C55.6454 29.615 57.1252 28.1352 57.1252 26.3097C57.1252 24.4842 55.6454 23.0044 53.8199 23.0044C51.9945 23.0044 50.5146 24.4842 50.5146 26.3097C50.5146 28.1352 51.9945 29.615 53.8199 29.615Z" fill="white"/>
<defs>
<linearGradient id="paint0_linear_236_4" x1="17.5" y1="72.5" x2="36" y2="8.5" gradientUnits="userSpaceOnUse">
<stop stop-color="#E09B3D"/>
<stop offset="0.373824" stop-color="#C74C4D"/>
<stop offset="0.601757" stop-color="#C21975"/>
<stop offset="1" stop-color="#7024C4"/>
</linearGradient>
</defs>
</svg>
