<svg width="36" height="37" viewBox="0 0 36 37" fill="none" xmlns="http://www.w3.org/2000/svg">
<path d="M16.6111 36.9778C17.311 36.9617 17.9827 36.6985 18.5073 36.2349C19.0319 35.7713 19.3757 35.1371 19.4777 34.4445H13.6333C13.7383 35.1559 14.0981 35.805 14.6459 36.271C15.1936 36.737 15.892 36.9882 16.6111 36.9778V36.9778Z" fill="black"/>
<path d="M32.7333 29.8112C31.6619 28.856 30.7238 27.761 29.9444 26.5556C29.0936 24.8918 28.5836 23.0748 28.4444 21.2112V15.7223C28.4399 15.0556 28.3805 14.3904 28.2667 13.7334C27.3921 13.5586 26.5516 13.2434 25.7778 12.8001C26.0728 13.7499 26.2226 14.7389 26.2222 15.7334V21.2223C26.3584 23.4957 26.9838 25.7128 28.0556 27.7223C28.8227 28.9379 29.7329 30.057 30.7667 31.0556H2.31111C3.3449 30.057 4.25511 28.9379 5.02222 27.7223C6.09401 25.7128 6.71937 23.4957 6.85556 21.2223V15.7223C6.84971 14.4364 7.09756 13.162 7.58494 11.972C8.07231 10.782 8.78962 9.69987 9.6958 8.7875C10.602 7.87513 11.6792 7.15046 12.8659 6.655C14.0525 6.15953 15.3252 5.903 16.6111 5.90009C18.4931 5.9016 20.3328 6.45815 21.9 7.50009C21.7272 6.86564 21.6303 6.21294 21.6111 5.55565V4.85565C20.451 4.28494 19.2046 3.90953 17.9222 3.74454V2.34454C17.9222 1.95113 17.7659 1.57384 17.4878 1.29566C17.2096 1.01749 16.8323 0.861206 16.4389 0.861206C16.0455 0.861206 15.6682 1.01749 15.39 1.29566C15.1118 1.57384 14.9556 1.95113 14.9556 2.34454V3.80009C12.0841 4.20515 9.45619 5.63537 7.55691 7.82669C5.65763 10.018 4.61525 12.8225 4.62222 15.7223V21.2112C4.48306 23.0748 3.97309 24.8918 3.12222 26.5556C2.35654 27.7583 1.43355 28.8531 0.377778 29.8112C0.259257 29.9153 0.164268 30.0435 0.0991305 30.1872C0.0339928 30.3309 0.000199774 30.4868 0 30.6445V32.1556C0 32.4503 0.117063 32.7329 0.325437 32.9413C0.533811 33.1497 0.816426 33.2668 1.11111 33.2668H32C32.2947 33.2668 32.5773 33.1497 32.7857 32.9413C32.994 32.7329 33.1111 32.4503 33.1111 32.1556V30.6445C33.1109 30.4868 33.0771 30.3309 33.012 30.1872C32.9468 30.0435 32.8519 29.9153 32.7333 29.8112V29.8112Z" fill="black"/>
<path d="M29.9445 11.1111C33.0127 11.1111 35.5 8.62381 35.5 5.55556C35.5 2.48731 33.0127 0 29.9445 0C26.8762 0 24.3889 2.48731 24.3889 5.55556C24.3889 8.62381 26.8762 11.1111 29.9445 11.1111Z" fill="#DC3545"/>
</svg>
