<svg width="34" height="37" viewBox="0 0 34 37" fill="none" xmlns="http://www.w3.org/2000/svg">
<path d="M32.0667 29.6989L32.0722 29.7037C32.0841 29.7141 32.0936 29.7269 32.1001 29.7413C32.1066 29.7557 32.11 29.7713 32.11 29.7871V31.2971C32.11 31.3266 32.0983 31.3549 32.0774 31.3758C32.0566 31.3966 32.0283 31.4083 31.9989 31.4083H1.11107C1.08166 31.4083 1.05342 31.3966 1.03257 31.3758C1.01173 31.3549 1 31.3266 1 31.2971V29.7868C1.00006 29.7711 1.00345 29.7556 1.00993 29.7413C1.01645 29.7269 1.02596 29.7141 1.03781 29.7037L1.04386 29.6984L1.04982 29.6929C2.17154 28.6749 3.15217 27.5115 3.96568 26.2336L3.99101 26.1939L4.01247 26.1519C4.92393 24.3693 5.47022 22.4227 5.61929 20.4262L5.62207 20.389V20.3517L5.62207 14.8624L5.62207 14.8604C5.6167 12.1971 6.57657 9.62211 8.32388 7.61238C10.0712 5.60265 12.4875 4.29433 15.1253 3.92972L15.9884 3.81042V2.93914V1.48346C15.9884 1.3552 16.0393 1.23222 16.13 1.14156C16.2206 1.05091 16.3435 1 16.4717 1C16.5998 1 16.7227 1.05091 16.8134 1.14156C16.904 1.23222 16.955 1.3552 16.955 1.48346V2.91691V3.79727L17.8282 3.90885C20.4898 4.24894 22.9357 5.5494 24.7063 7.5659C26.4769 9.58241 27.4502 12.1762 27.4435 14.8599V14.8624V20.3517V20.389L27.4463 20.4262C27.5953 22.4227 28.1416 24.3693 29.0531 26.1519L29.0762 26.197L29.1037 26.2395C29.9317 27.5204 30.9284 28.6839 32.0667 29.6989Z" stroke="black" stroke-width="2"/>
<path d="M16.6106 36.1197C17.3105 36.1036 17.9821 35.8404 18.5067 35.3768C19.0313 34.9131 19.375 34.2789 19.4771 33.5862H13.6329C13.7378 34.2977 14.0977 34.9469 14.6454 35.4129C15.1931 35.8789 15.8915 36.1301 16.6106 36.1197V36.1197Z" fill="black"/>
</svg>
