<svg width="80" height="80" viewBox="0 0 80 80" fill="none" xmlns="http://www.w3.org/2000/svg">
<path d="M40 80C62.0914 80 80 62.0914 80 40C80 17.9086 62.0914 0 40 0C17.9086 0 0 17.9086 0 40C0 62.0914 17.9086 80 40 80Z" fill="#25D366"/>
<path fill-rule="evenodd" clip-rule="evenodd" d="M41.3181 62.2542H41.3083C37.3275 62.2528 33.416 61.254 29.9419 59.3591L17.333 62.6667L20.7074 50.3414C18.6259 46.7342 17.5306 42.6425 17.5324 38.4504C17.5376 25.3361 28.2077 14.6667 41.3179 14.6667C47.6807 14.6694 53.6527 17.1464 58.1434 21.6423C62.634 26.138 65.1058 32.1139 65.1032 38.4692C65.098 51.5804 54.4322 62.2488 41.3181 62.2542ZM30.5266 55.0531L31.2485 55.4816C34.2838 57.2828 37.7632 58.2358 41.3106 58.2372H41.3187C52.2149 58.2372 61.0834 49.3685 61.0878 38.4678C61.0898 33.1853 59.0355 28.2184 55.303 24.4816C51.5705 20.7448 46.6068 18.6859 41.3264 18.684C30.4217 18.684 21.5532 27.5518 21.5488 38.4518C21.5473 42.1873 22.5925 45.8252 24.5714 48.9727L25.0415 49.7207L23.0443 57.0159L30.5266 55.0531ZM52.4873 43.5901C52.9018 43.7904 53.1817 43.9257 53.3012 44.1252C53.4497 44.373 53.4497 45.5629 52.9547 46.9514C52.4593 48.3396 50.085 49.6066 48.943 49.7772C47.9192 49.9303 46.6235 49.9941 45.1998 49.5417C44.3366 49.2678 43.2297 48.9021 41.8117 48.2898C36.2402 45.884 32.4749 40.484 31.7633 39.4634C31.7135 39.3919 31.6786 39.3419 31.6592 39.3159L31.6544 39.3095C31.3398 38.8898 29.2324 36.078 29.2324 33.1679C29.2324 30.4304 30.5772 28.9955 31.1961 28.335C31.2385 28.2897 31.2775 28.2481 31.3125 28.21C31.8572 27.615 32.5011 27.4662 32.8973 27.4662C33.2935 27.4662 33.6901 27.4699 34.0364 27.4873C34.0791 27.4894 34.1235 27.4892 34.1695 27.4889C34.5158 27.4869 34.9476 27.4843 35.3735 28.5075C35.5374 28.9012 35.7772 29.485 36.0301 30.1007C36.5415 31.3457 37.1065 32.7213 37.2059 32.9203C37.3545 33.2178 37.4535 33.5647 37.2554 33.9616C37.2257 34.0211 37.1982 34.0772 37.1719 34.1309C37.0231 34.4346 36.9137 34.6581 36.6612 34.9529C36.5618 35.0689 36.4592 35.1939 36.3566 35.3189C36.1521 35.5679 35.9477 35.8168 35.7697 35.9942C35.4721 36.2905 35.1624 36.6121 35.5091 37.2071C35.8558 37.8021 37.0485 39.7482 38.8153 41.3241C40.7145 43.0181 42.3652 43.7341 43.2019 44.097C43.3652 44.1679 43.4976 44.2253 43.5947 44.2739C44.1888 44.5715 44.5355 44.5217 44.8822 44.1252C45.2289 43.7286 46.3678 42.3897 46.764 41.7948C47.1601 41.2001 47.5565 41.2991 48.1011 41.4974C48.646 41.6959 51.5679 43.1335 52.1622 43.431C52.2782 43.4891 52.3867 43.5415 52.4873 43.5901Z" fill="#FDFDFD"/>
</svg>
