<svg width="80" height="80" viewBox="0 0 80 80" fill="none" xmlns="http://www.w3.org/2000/svg">
<path d="M0 40C0 17.9086 17.9086 0 40 0C62.0914 0 80 17.9086 80 40C80 62.0914 62.0914 80 40 80C17.9086 80 0 62.0914 0 40Z" fill="#FF0000"/>
<path d="M60.442 30.122C59.9514 28.237 58.5055 26.7527 56.6697 26.2489C53.3426 25.3333 40.0003 25.3333 40.0003 25.3333C40.0003 25.3333 26.658 25.3333 23.3307 26.2489C21.4949 26.7527 20.0491 28.237 19.5584 30.122C18.667 33.5384 18.667 40.6667 18.667 40.6667C18.667 40.6667 18.667 47.7947 19.5584 51.2113C20.0491 53.0963 21.4949 54.5807 23.3307 55.0847C26.658 56 40.0003 56 40.0003 56C40.0003 56 53.3426 56 56.6697 55.0847C58.5055 54.5807 59.9514 53.0963 60.442 51.2113C61.3337 47.7947 61.3337 40.6667 61.3337 40.6667C61.3337 40.6667 61.3337 33.5384 60.442 30.122Z" fill="white"/>
<path d="M36 47.9999V34.6666L46.6667 41.3335L36 47.9999Z" fill="#FF0000"/>
</svg>
